<svg width="176" height="43" viewBox="0 0 176 43" fill="none" xmlns="http://www.w3.org/2000/svg">
<path d="M10.976 30.9415C9.16533 30.9415 7.49467 30.5215 5.964 29.6815C4.452 28.8228 3.248 27.6375 2.352 26.1255C1.47467 24.5948 1.036 22.8775 1.036 20.9735C1.036 19.0695 1.47467 17.3615 2.352 15.8495C3.248 14.3375 4.452 13.1615 5.964 12.3215C7.49467 11.4628 9.16533 11.0335 10.976 11.0335C12.8053 11.0335 14.476 11.4628 15.988 12.3215C17.5187 13.1615 18.7227 14.3375 19.6 15.8495C20.4773 17.3615 20.916 19.0695 20.916 20.9735C20.916 22.8775 20.4773 24.5948 19.6 26.1255C18.7227 27.6375 17.5187 28.8228 15.988 29.6815C14.476 30.5215 12.8053 30.9415 10.976 30.9415ZM10.976 28.1695C12.264 28.1695 13.412 27.8801 14.42 27.3015C15.428 26.7042 16.212 25.8641 16.772 24.7815C17.3507 23.6801 17.64 22.4108 17.64 20.9735C17.64 19.5361 17.3507 18.2761 16.772 17.1935C16.212 16.1108 15.428 15.2801 14.42 14.7015C13.412 14.1228 12.264 13.8335 10.976 13.8335C9.688 13.8335 8.54 14.1228 7.532 14.7015C6.524 15.2801 5.73067 16.1108 5.152 17.1935C4.592 18.2761 4.312 19.5361 4.312 20.9735C4.312 22.4108 4.592 23.6801 5.152 24.7815C5.73067 25.8641 6.524 26.7042 7.532 27.3015C8.54 27.8801 9.688 28.1695 10.976 28.1695ZM36.909 15.3175V30.7455H33.717V28.9255C33.213 29.5601 32.5504 30.0642 31.729 30.4375C30.9264 30.7922 30.0677 30.9695 29.153 30.9695C27.9397 30.9695 26.8477 30.7175 25.877 30.2135C24.925 29.7095 24.169 28.9628 23.609 27.9735C23.0677 26.9841 22.797 25.7895 22.797 24.3895V15.3175H25.961V23.9135C25.961 25.2948 26.3064 26.3588 26.997 27.1055C27.6877 27.8335 28.6304 28.1975 29.825 28.1975C31.0197 28.1975 31.9624 27.8335 32.653 27.1055C33.3624 26.3588 33.717 25.2948 33.717 23.9135V15.3175H36.909ZM43.7246 17.9215V26.4615C43.7246 27.0401 43.8553 27.4601 44.1166 27.7215C44.3966 27.9641 44.8633 28.0855 45.5166 28.0855H47.4766V30.7455H44.9566C43.5193 30.7455 42.418 30.4095 41.6526 29.7375C40.8873 29.0655 40.5046 27.9735 40.5046 26.4615V17.9215H38.6846V15.3175H40.5046V11.4815H43.7246V15.3175H47.4766V17.9215H43.7246ZM48.2346 23.0175C48.2346 21.4308 48.5519 20.0401 49.1866 18.8455C49.8399 17.6321 50.7359 16.6988 51.8746 16.0455C53.0133 15.3921 54.3199 15.0655 55.7946 15.0655C57.6613 15.0655 59.2013 15.5135 60.4146 16.4095C61.6466 17.2868 62.4773 18.5468 62.9066 20.1895H59.4626C59.1826 19.4241 58.7346 18.8268 58.1186 18.3975C57.5026 17.9681 56.7279 17.7535 55.7946 17.7535C54.4879 17.7535 53.4426 18.2201 52.6586 19.1535C51.8933 20.0681 51.5106 21.3561 51.5106 23.0175C51.5106 24.6788 51.8933 25.9761 52.6586 26.9095C53.4426 27.8428 54.4879 28.3095 55.7946 28.3095C57.6426 28.3095 58.8653 27.4975 59.4626 25.8735H62.9066C62.4586 27.4415 61.6186 28.6921 60.3866 29.6255C59.1546 30.5402 57.6239 30.9975 55.7946 30.9975C54.3199 30.9975 53.0133 30.6708 51.8746 30.0175C50.7359 29.3455 49.8399 28.4121 49.1866 27.2175C48.5519 26.0041 48.2346 24.6041 48.2346 23.0175ZM71.6597 30.9975C70.2037 30.9975 68.8877 30.6708 67.7117 30.0175C66.5357 29.3455 65.6117 28.4121 64.9397 27.2175C64.2677 26.0041 63.9317 24.6041 63.9317 23.0175C63.9317 21.4495 64.277 20.0588 64.9677 18.8455C65.6583 17.6321 66.601 16.6988 67.7957 16.0455C68.9903 15.3921 70.325 15.0655 71.7997 15.0655C73.2743 15.0655 74.609 15.3921 75.8037 16.0455C76.9983 16.6988 77.941 17.6321 78.6317 18.8455C79.3223 20.0588 79.6677 21.4495 79.6677 23.0175C79.6677 24.5855 79.313 25.9761 78.6037 27.1895C77.8943 28.4028 76.9237 29.3455 75.6917 30.0175C74.4783 30.6708 73.1343 30.9975 71.6597 30.9975ZM71.6597 28.2255C72.481 28.2255 73.2463 28.0295 73.9557 27.6375C74.6837 27.2455 75.2717 26.6575 75.7197 25.8735C76.1677 25.0895 76.3917 24.1375 76.3917 23.0175C76.3917 21.8975 76.177 20.9548 75.7477 20.1895C75.3183 19.4055 74.749 18.8175 74.0397 18.4255C73.3303 18.0335 72.565 17.8375 71.7437 17.8375C70.9223 17.8375 70.157 18.0335 69.4477 18.4255C68.757 18.8175 68.2063 19.4055 67.7957 20.1895C67.385 20.9548 67.1797 21.8975 67.1797 23.0175C67.1797 24.6788 67.5997 25.9668 68.4397 26.8815C69.2983 27.7775 70.3717 28.2255 71.6597 28.2255ZM100.379 15.0655C101.592 15.0655 102.675 15.3175 103.627 15.8215C104.598 16.3255 105.354 17.0721 105.895 18.0615C106.455 19.0508 106.735 20.2455 106.735 21.6455V30.7455H103.571V22.1215C103.571 20.7401 103.226 19.6855 102.535 18.9575C101.844 18.2108 100.902 17.8375 99.7071 17.8375C98.5125 17.8375 97.5605 18.2108 96.8511 18.9575C96.1605 19.6855 95.8151 20.7401 95.8151 22.1215V30.7455H92.6511V22.1215C92.6511 20.7401 92.3058 19.6855 91.6151 18.9575C90.9245 18.2108 89.9818 17.8375 88.7871 17.8375C87.5925 17.8375 86.6405 18.2108 85.9311 18.9575C85.2405 19.6855 84.8951 20.7401 84.8951 22.1215V30.7455H81.7031V15.3175H84.8951V17.0815C85.4178 16.4468 86.0805 15.9521 86.8831 15.5975C87.6858 15.2428 88.5445 15.0655 89.4591 15.0655C90.6911 15.0655 91.7925 15.3268 92.7631 15.8495C93.7338 16.3721 94.4805 17.1281 95.0031 18.1175C95.4698 17.1841 96.1978 16.4468 97.1871 15.9055C98.1765 15.3455 99.2405 15.0655 100.379 15.0655ZM123.817 22.6535C123.817 23.2321 123.78 23.7548 123.705 24.2215H111.917C112.01 25.4535 112.468 26.4428 113.289 27.1895C114.11 27.9361 115.118 28.3095 116.313 28.3095C118.03 28.3095 119.244 27.5908 119.953 26.1535H123.397C122.93 27.5721 122.081 28.7388 120.849 29.6535C119.636 30.5495 118.124 30.9975 116.313 30.9975C114.838 30.9975 113.513 30.6708 112.337 30.0175C111.18 29.3455 110.265 28.4121 109.593 27.2175C108.94 26.0041 108.613 24.6041 108.613 23.0175C108.613 21.4308 108.93 20.0401 109.565 18.8455C110.218 17.6321 111.124 16.6988 112.281 16.0455C113.457 15.3921 114.801 15.0655 116.313 15.0655C117.769 15.0655 119.066 15.3828 120.205 16.0175C121.344 16.6521 122.23 17.5481 122.865 18.7055C123.5 19.8441 123.817 21.1601 123.817 22.6535ZM120.485 21.6455C120.466 20.4695 120.046 19.5268 119.225 18.8175C118.404 18.1081 117.386 17.7535 116.173 17.7535C115.072 17.7535 114.129 18.1081 113.345 18.8175C112.561 19.5081 112.094 20.4508 111.945 21.6455H120.485Z" fill="#2A2A2A"/>
<path d="M129.03 11.2855V30.7455H125.838V11.2855H129.03ZM147.165 34.2735L143.749 30.5775C142.909 30.8202 141.985 30.9415 140.977 30.9415C139.166 30.9415 137.496 30.5215 135.965 29.6815C134.453 28.8228 133.249 27.6375 132.353 26.1255C131.476 24.5948 131.037 22.8775 131.037 20.9735C131.037 19.0695 131.476 17.3615 132.353 15.8495C133.249 14.3375 134.453 13.1615 135.965 12.3215C137.496 11.4628 139.166 11.0335 140.977 11.0335C142.806 11.0335 144.477 11.4628 145.989 12.3215C147.52 13.1615 148.724 14.3375 149.601 15.8495C150.478 17.3615 150.917 19.0695 150.917 20.9735C150.917 22.7655 150.525 24.3895 149.741 25.8455C148.976 27.2828 147.912 28.4401 146.549 29.3175L151.225 34.2735H147.165ZM134.313 20.9735C134.313 22.4108 134.593 23.6801 135.153 24.7815C135.732 25.8641 136.525 26.7042 137.533 27.3015C138.541 27.8801 139.689 28.1695 140.977 28.1695C142.265 28.1695 143.413 27.8801 144.421 27.3015C145.429 26.7042 146.213 25.8641 146.773 24.7815C147.352 23.6801 147.641 22.4108 147.641 20.9735C147.641 19.5361 147.352 18.2761 146.773 17.1935C146.213 16.1108 145.429 15.2801 144.421 14.7015C143.413 14.1228 142.265 13.8335 140.977 13.8335C139.689 13.8335 138.541 14.1228 137.533 14.7015C136.525 15.2801 135.732 16.1108 135.153 17.1935C134.593 18.2761 134.313 19.5361 134.313 20.9735ZM156.97 31.0955C155.937 31.0955 155.07 30.7455 154.37 30.0455C153.67 29.3455 153.32 28.4788 153.32 27.4455C153.32 26.4121 153.67 25.5455 154.37 24.8455C155.07 24.1455 155.937 23.7955 156.97 23.7955C157.97 23.7955 158.82 24.1455 159.52 24.8455C160.22 25.5455 160.57 26.4121 160.57 27.4455C160.57 28.4788 160.22 29.3455 159.52 30.0455C158.82 30.7455 157.97 31.0955 156.97 31.0955Z" fill="#F8F130"/>
</svg>
