<svg width="183" height="48" viewBox="0 0 183 48" fill="none" xmlns="http://www.w3.org/2000/svg">
<path d="M14.9857 33.2142C13.1751 33.2142 11.5044 32.7942 9.97373 31.9542C8.46173 31.0955 7.25773 29.9102 6.36173 28.3982C5.48439 26.8675 5.04573 25.1502 5.04573 23.2462C5.04573 21.3422 5.48439 19.6342 6.36173 18.1222C7.25773 16.6102 8.46173 15.4342 9.97373 14.5942C11.5044 13.7355 13.1751 13.3062 14.9857 13.3062C16.8151 13.3062 18.4857 13.7355 19.9977 14.5942C21.5284 15.4342 22.7324 16.6102 23.6097 18.1222C24.4871 19.6342 24.9257 21.3422 24.9257 23.2462C24.9257 25.1502 24.4871 26.8675 23.6097 28.3982C22.7324 29.9102 21.5284 31.0955 19.9977 31.9542C18.4857 32.7942 16.8151 33.2142 14.9857 33.2142ZM14.9857 30.4422C16.2737 30.4422 17.4217 30.1529 18.4297 29.5742C19.4377 28.9769 20.2217 28.1369 20.7817 27.0542C21.3604 25.9529 21.6497 24.6835 21.6497 23.2462C21.6497 21.8089 21.3604 20.5489 20.7817 19.4662C20.2217 18.3835 19.4377 17.5529 18.4297 16.9742C17.4217 16.3955 16.2737 16.1062 14.9857 16.1062C13.6977 16.1062 12.5497 16.3955 11.5417 16.9742C10.5337 17.5529 9.74039 18.3835 9.16173 19.4662C8.60173 20.5489 8.32173 21.8089 8.32173 23.2462C8.32173 24.6835 8.60173 25.9529 9.16173 27.0542C9.74039 28.1369 10.5337 28.9769 11.5417 29.5742C12.5497 30.1529 13.6977 30.4422 14.9857 30.4422ZM40.9188 17.5902V33.0182H37.7268V31.1982C37.2228 31.8329 36.5601 32.3369 35.7388 32.7102C34.9361 33.0649 34.0774 33.2422 33.1628 33.2422C31.9494 33.2422 30.8574 32.9902 29.8868 32.4862C28.9348 31.9822 28.1788 31.2355 27.6188 30.2462C27.0774 29.2569 26.8068 28.0622 26.8068 26.6622V17.5902H29.9708V26.1862C29.9708 27.5675 30.3161 28.6315 31.0068 29.3782C31.6974 30.1062 32.6401 30.4702 33.8348 30.4702C35.0294 30.4702 35.9721 30.1062 36.6628 29.3782C37.3721 28.6315 37.7268 27.5675 37.7268 26.1862V17.5902H40.9188ZM47.7344 20.1942V28.7342C47.7344 29.3129 47.865 29.7329 48.1264 29.9942C48.4064 30.2369 48.873 30.3582 49.5264 30.3582H51.4864V33.0182H48.9664C47.529 33.0182 46.4277 32.6822 45.6624 32.0102C44.897 31.3382 44.5144 30.2462 44.5144 28.7342V20.1942H42.6944V17.5902H44.5144V13.7542H47.7344V17.5902H51.4864V20.1942H47.7344ZM52.2443 25.2902C52.2443 23.7035 52.5617 22.3129 53.1963 21.1182C53.8497 19.9049 54.7457 18.9715 55.8843 18.3182C57.023 17.6649 58.3297 17.3382 59.8043 17.3382C61.671 17.3382 63.211 17.7862 64.4243 18.6822C65.6563 19.5595 66.487 20.8195 66.9163 22.4622H63.4723C63.1923 21.6969 62.7443 21.0995 62.1283 20.6702C61.5123 20.2409 60.7377 20.0262 59.8043 20.0262C58.4977 20.0262 57.4523 20.4929 56.6683 21.4262C55.903 22.3409 55.5203 23.6289 55.5203 25.2902C55.5203 26.9515 55.903 28.2489 56.6683 29.1822C57.4523 30.1155 58.4977 30.5822 59.8043 30.5822C61.6523 30.5822 62.875 29.7702 63.4723 28.1462H66.9163C66.4683 29.7142 65.6283 30.9649 64.3963 31.8982C63.1643 32.8129 61.6337 33.2702 59.8043 33.2702C58.3297 33.2702 57.023 32.9435 55.8843 32.2902C54.7457 31.6182 53.8497 30.6849 53.1963 29.4902C52.5617 28.2769 52.2443 26.8769 52.2443 25.2902ZM75.6694 33.2702C74.2134 33.2702 72.8974 32.9435 71.7214 32.2902C70.5454 31.6182 69.6214 30.6849 68.9494 29.4902C68.2774 28.2769 67.9414 26.8769 67.9414 25.2902C67.9414 23.7222 68.2867 22.3315 68.9774 21.1182C69.6681 19.9049 70.6107 18.9715 71.8054 18.3182C73.0001 17.6649 74.3347 17.3382 75.8094 17.3382C77.2841 17.3382 78.6187 17.6649 79.8134 18.3182C81.0081 18.9715 81.9507 19.9049 82.6414 21.1182C83.3321 22.3315 83.6774 23.7222 83.6774 25.2902C83.6774 26.8582 83.3227 28.2489 82.6134 29.4622C81.9041 30.6755 80.9334 31.6182 79.7014 32.2902C78.4881 32.9435 77.1441 33.2702 75.6694 33.2702ZM75.6694 30.4982C76.4907 30.4982 77.2561 30.3022 77.9654 29.9102C78.6934 29.5182 79.2814 28.9302 79.7294 28.1462C80.1774 27.3622 80.4014 26.4102 80.4014 25.2902C80.4014 24.1702 80.1867 23.2275 79.7574 22.4622C79.3281 21.6782 78.7587 21.0902 78.0494 20.6982C77.3401 20.3062 76.5747 20.1102 75.7534 20.1102C74.9321 20.1102 74.1667 20.3062 73.4574 20.6982C72.7667 21.0902 72.2161 21.6782 71.8054 22.4622C71.3947 23.2275 71.1894 24.1702 71.1894 25.2902C71.1894 26.9515 71.6094 28.2395 72.4494 29.1542C73.3081 30.0502 74.3814 30.4982 75.6694 30.4982ZM104.389 17.3382C105.602 17.3382 106.685 17.5902 107.637 18.0942C108.608 18.5982 109.364 19.3449 109.905 20.3342C110.465 21.3235 110.745 22.5182 110.745 23.9182V33.0182H107.581V24.3942C107.581 23.0129 107.236 21.9582 106.545 21.2302C105.854 20.4835 104.912 20.1102 103.717 20.1102C102.522 20.1102 101.57 20.4835 100.861 21.2302C100.17 21.9582 99.8249 23.0129 99.8249 24.3942V33.0182H96.6609V24.3942C96.6609 23.0129 96.3155 21.9582 95.6249 21.2302C94.9342 20.4835 93.9915 20.1102 92.7969 20.1102C91.6022 20.1102 90.6502 20.4835 89.9409 21.2302C89.2502 21.9582 88.9049 23.0129 88.9049 24.3942V33.0182H85.7129V17.5902H88.9049V19.3542C89.4275 18.7195 90.0902 18.2249 90.8929 17.8702C91.6955 17.5155 92.5542 17.3382 93.4689 17.3382C94.7009 17.3382 95.8022 17.5995 96.7729 18.1222C97.7435 18.6449 98.4902 19.4009 99.0129 20.3902C99.4795 19.4569 100.208 18.7195 101.197 18.1782C102.186 17.6182 103.25 17.3382 104.389 17.3382ZM127.827 24.9262C127.827 25.5049 127.789 26.0275 127.715 26.4942H115.927C116.02 27.7262 116.477 28.7155 117.299 29.4622C118.12 30.2089 119.128 30.5822 120.323 30.5822C122.04 30.5822 123.253 29.8635 123.963 28.4262H127.407C126.94 29.8449 126.091 31.0115 124.859 31.9262C123.645 32.8222 122.133 33.2702 120.323 33.2702C118.848 33.2702 117.523 32.9435 116.347 32.2902C115.189 31.6182 114.275 30.6849 113.603 29.4902C112.949 28.2769 112.623 26.8769 112.623 25.2902C112.623 23.7035 112.94 22.3129 113.575 21.1182C114.228 19.9049 115.133 18.9715 116.291 18.3182C117.467 17.6649 118.811 17.3382 120.323 17.3382C121.779 17.3382 123.076 17.6555 124.215 18.2902C125.353 18.9249 126.24 19.8209 126.875 20.9782C127.509 22.1169 127.827 23.4329 127.827 24.9262ZM124.495 23.9182C124.476 22.7422 124.056 21.7995 123.235 21.0902C122.413 20.3809 121.396 20.0262 120.183 20.0262C119.081 20.0262 118.139 20.3809 117.355 21.0902C116.571 21.7809 116.104 22.7235 115.955 23.9182H124.495Z" fill="white"/>
<path d="M133.04 13.5582V33.0182H129.848V13.5582H133.04ZM151.175 36.5462L147.759 32.8502C146.919 33.0929 145.995 33.2142 144.987 33.2142C143.176 33.2142 141.505 32.7942 139.975 31.9542C138.463 31.0955 137.259 29.9102 136.363 28.3982C135.485 26.8675 135.047 25.1502 135.047 23.2462C135.047 21.3422 135.485 19.6342 136.363 18.1222C137.259 16.6102 138.463 15.4342 139.975 14.5942C141.505 13.7355 143.176 13.3062 144.987 13.3062C146.816 13.3062 148.487 13.7355 149.999 14.5942C151.529 15.4342 152.733 16.6102 153.611 18.1222C154.488 19.6342 154.927 21.3422 154.927 23.2462C154.927 25.0382 154.535 26.6622 153.751 28.1182C152.985 29.5555 151.921 30.7129 150.559 31.5902L155.235 36.5462H151.175ZM138.323 23.2462C138.323 24.6835 138.603 25.9529 139.163 27.0542C139.741 28.1369 140.535 28.9769 141.543 29.5742C142.551 30.1529 143.699 30.4422 144.987 30.4422C146.275 30.4422 147.423 30.1529 148.431 29.5742C149.439 28.9769 150.223 28.1369 150.783 27.0542C151.361 25.9529 151.651 24.6835 151.651 23.2462C151.651 21.8089 151.361 20.5489 150.783 19.4662C150.223 18.3835 149.439 17.5529 148.431 16.9742C147.423 16.3955 146.275 16.1062 144.987 16.1062C143.699 16.1062 142.551 16.3955 141.543 16.9742C140.535 17.5529 139.741 18.3835 139.163 19.4662C138.603 20.5489 138.323 21.8089 138.323 23.2462ZM160.98 33.3682C159.946 33.3682 159.08 33.0182 158.38 32.3182C157.68 31.6182 157.33 30.7515 157.33 29.7182C157.33 28.6849 157.68 27.8182 158.38 27.1182C159.08 26.4182 159.946 26.0682 160.98 26.0682C161.98 26.0682 162.83 26.4182 163.53 27.1182C164.23 27.8182 164.58 28.6849 164.58 29.7182C164.58 30.7515 164.23 31.6182 163.53 32.3182C162.83 33.0182 161.98 33.3682 160.98 33.3682Z" fill="#F8F130"/>
</svg>
