<svg width="402" height="277" viewBox="0 0 402 277" fill="none" xmlns="http://www.w3.org/2000/svg">
<g clip-path="url(#clip0_188_195)">
<path d="M55.1679 275.415C39.182 271.246 25.0559 261.818 15.0541 248.644C5.05233 235.469 -0.246 219.311 0.00846636 202.76C0.0718681 198.636 0.504537 194.425 2.23442 190.683C3.9643 186.94 7.17754 183.703 11.1969 182.817C15.5835 181.849 20.2123 183.827 23.4813 186.914C26.7504 190.001 28.8938 194.074 30.8659 198.118C42.7441 222.477 51.7689 248.614 55.1478 275.513L55.1679 275.415Z" fill="#F2F2F2"/>
<path d="M9.20689 183.629L17.5318 202.585L25.8567 221.54C28.4933 227.543 31.1248 233.549 33.8499 239.513C36.5511 245.424 39.3449 251.294 42.3253 257.07C45.3015 262.837 48.4646 268.51 51.898 274.017C52.3255 274.703 52.7573 275.386 53.1933 276.067C53.495 276.538 54.2492 276.101 53.9453 275.626C50.4461 270.16 47.2217 264.522 44.1976 258.778C41.1702 253.029 38.3407 247.177 35.6156 241.279C32.8761 235.349 30.2418 229.37 27.6146 223.39C24.8492 217.094 22.0843 210.799 19.3198 204.503L10.9949 185.548L9.95889 183.189C9.7336 182.676 8.98298 183.12 9.20689 183.629Z" fill="white"/>
<path d="M51.6951 275.547C42.2723 277.707 32.3986 276.634 23.6569 272.5C14.9151 268.366 7.81153 261.41 3.48481 252.748C2.40679 250.59 1.49718 248.287 1.38715 245.876C1.27712 243.465 2.07342 240.915 3.92134 239.367C5.93807 237.678 8.87418 237.453 11.403 238.171C13.9317 238.889 16.1417 240.424 18.255 241.99C30.984 251.423 42.7105 262.552 51.7112 275.603L51.6951 275.547Z" fill="#F2F2F2"/>
<path d="M3.1071 240.328L12.5356 247.917L21.9641 255.506C24.9502 257.909 27.9343 260.315 30.9556 262.674C33.9504 265.013 36.9823 267.304 40.0855 269.497C43.1843 271.686 46.3548 273.775 49.621 275.706C50.0277 275.946 50.4359 276.184 50.8456 276.419C51.1292 276.582 51.403 276.151 51.1173 275.987C47.828 274.096 44.635 272.041 41.5178 269.877C38.3973 267.711 35.3518 265.439 32.3481 263.113C29.3282 260.776 26.3501 258.385 23.375 255.99C20.2434 253.47 17.112 250.95 13.9807 248.429L4.5522 240.84L3.37888 239.895C3.12372 239.69 2.85351 240.123 3.1071 240.328Z" fill="white"/>
<path d="M398.359 0H145.064C144.099 0.00107333 143.174 0.385825 142.491 1.06983C141.809 1.75384 141.425 2.68124 141.424 3.64857V175.653C141.425 176.62 141.809 177.547 142.491 178.231C143.174 178.915 144.099 179.3 145.064 179.301H398.359C399.325 179.3 400.25 178.915 400.933 178.231C401.615 177.547 401.999 176.62 402 175.653V3.64857C401.999 2.68124 401.615 1.75384 400.933 1.06983C400.25 0.385825 399.325 0.00107333 398.359 0ZM400.96 175.653C400.96 176.344 400.685 177.006 400.198 177.495C399.71 177.984 399.049 178.258 398.359 178.259H145.064C144.375 178.258 143.713 177.984 143.226 177.495C142.738 177.006 142.464 176.344 142.464 175.653V3.64857C142.464 2.95747 142.738 2.29476 143.226 1.80607C143.713 1.31739 144.375 1.04273 145.064 1.04245H398.359C399.049 1.04273 399.71 1.31739 400.198 1.80607C400.685 2.29476 400.96 2.95747 400.96 3.64857V175.653Z" fill="#3F3D56"/>
<path d="M401.48 14.6151H141.944V15.6576H401.48V14.6151Z" fill="#3F3D56"/>
<path d="M150.786 10.9457C152.509 10.9457 153.906 9.54554 153.906 7.81836C153.906 6.09117 152.509 4.69101 150.786 4.69101C149.062 4.69101 147.665 6.09117 147.665 7.81836C147.665 9.54554 149.062 10.9457 150.786 10.9457Z" fill="#E5202A"/>
<path d="M159.758 10.9457C161.481 10.9457 162.878 9.54554 162.878 7.81836C162.878 6.09117 161.481 4.69101 159.758 4.69101C158.034 4.69101 156.637 6.09117 156.637 7.81836C156.637 9.54554 158.034 10.9457 159.758 10.9457Z" fill="#E39517"/>
<path d="M168.729 10.9457C170.453 10.9457 171.85 9.54554 171.85 7.81836C171.85 6.09117 170.453 4.69101 168.729 4.69101C167.006 4.69101 165.609 6.09117 165.609 7.81836C165.609 9.54554 167.006 10.9457 168.729 10.9457Z" fill="#29CC5F"/>
<path d="M205.329 38.8312H161.639C160.674 38.8312 159.748 38.4468 159.065 37.7626C158.382 37.0784 157.999 36.1503 157.999 35.1827C157.999 34.215 158.382 33.287 159.065 32.6027C159.748 31.9185 160.674 31.5341 161.639 31.5341H205.329C206.294 31.5341 207.22 31.9185 207.903 32.6027C208.586 33.287 208.97 34.215 208.97 35.1827C208.97 36.1503 208.586 37.0784 207.903 37.7626C207.22 38.4468 206.294 38.8312 205.329 38.8312Z" fill="#CCCCCC"/>
<path d="M265.142 56.5528H161.639C160.674 56.5528 159.748 56.1684 159.065 55.4842C158.382 54.8 157.999 53.8719 157.999 52.9043C157.999 51.9366 158.382 51.0086 159.065 50.3243C159.748 49.6401 160.674 49.2557 161.639 49.2557H265.142C266.107 49.2557 267.033 49.6401 267.716 50.3243C268.399 51.0086 268.783 51.9366 268.783 52.9043C268.783 53.8719 268.399 54.8 267.716 55.4842C267.033 56.1684 266.107 56.5528 265.142 56.5528Z" fill="#CCCCCC"/>
<path d="M298.543 63.6014C293.668 70.7251 290.826 79.0479 290.325 87.6716C289.823 96.2952 291.681 104.892 295.698 112.535C299.715 120.178 305.739 126.577 313.119 131.041C320.499 135.504 328.955 137.864 337.575 137.864V96.4578L298.543 63.6014Z" fill="#6D21D9"/>
<path d="M337.575 43.001C329.888 42.9961 322.316 44.8696 315.514 48.4593C308.713 52.0489 302.888 57.2464 298.543 63.6014L337.575 96.4578V43.001Z" fill="#D8C7EF"/>
<path d="M337.575 138.385H337.055V42.4798H337.575C350.265 42.4798 362.436 47.5319 371.41 56.5248C380.384 65.5177 385.425 77.7146 385.425 90.4324C385.425 103.15 380.384 115.347 371.41 124.34C362.436 133.333 350.265 138.385 337.575 138.385ZM338.095 43.525V137.34C350.419 137.203 362.191 132.2 370.858 123.418C379.524 114.636 384.385 102.784 384.385 90.4324C384.385 78.0814 379.524 66.2286 370.858 57.4467C362.191 48.6648 350.419 43.6623 338.095 43.525Z" fill="#3F3D56"/>
<path d="M191.806 157.931H182.964C182.343 157.93 181.749 157.683 181.31 157.243C180.871 156.804 180.624 156.207 180.623 155.586V130.046C180.624 129.424 180.871 128.827 181.31 128.388C181.749 127.948 182.343 127.701 182.964 127.7H191.806C192.426 127.701 193.021 127.948 193.46 128.388C193.899 128.827 194.146 129.424 194.146 130.046V155.586C194.146 156.207 193.899 156.804 193.46 157.243C193.021 157.683 192.426 157.93 191.806 157.931Z" fill="#CCCCCC"/>
<path d="M217.812 157.931H208.97C208.349 157.93 207.754 157.683 207.315 157.243C206.877 156.804 206.63 156.207 206.629 155.586V118.057C206.63 117.435 206.877 116.839 207.315 116.4C207.754 115.96 208.349 115.713 208.97 115.712H217.812C218.432 115.713 219.027 115.96 219.466 116.4C219.905 116.839 220.151 117.435 220.152 118.057V155.586C220.151 156.207 219.905 156.804 219.466 157.243C219.027 157.683 218.432 157.93 217.812 157.931Z" fill="#F8F130"/>
<path d="M243.817 157.931H234.975C234.355 157.93 233.76 157.683 233.321 157.243C232.882 156.804 232.635 156.207 232.635 155.586V107.633C232.635 107.011 232.882 106.415 233.321 105.975C233.76 105.535 234.355 105.288 234.975 105.287H243.817C244.438 105.288 245.033 105.535 245.471 105.975C245.91 106.415 246.157 107.011 246.158 107.633V155.586C246.157 156.207 245.91 156.804 245.471 157.243C245.033 157.683 244.438 157.93 243.817 157.931Z" fill="#6D21D9"/>
<path d="M191.806 158.192H182.964C182.274 158.191 181.614 157.916 181.126 157.427C180.638 156.939 180.364 156.276 180.363 155.585V98.2508C180.364 97.5599 180.638 96.8974 181.126 96.4089C181.614 95.9203 182.274 95.6455 182.964 95.6447H191.806C192.495 95.6455 193.156 95.9203 193.644 96.4089C194.131 96.8974 194.406 97.5599 194.406 98.2508V155.585C194.406 156.276 194.131 156.939 193.644 157.427C193.156 157.916 192.495 158.191 191.806 158.192ZM182.964 96.6871C182.55 96.6876 182.154 96.8525 181.861 97.1456C181.569 97.4388 181.404 97.8362 181.404 98.2508V155.585C181.404 156 181.569 156.398 181.861 156.691C182.154 156.984 182.55 157.149 182.964 157.149H191.806C192.22 157.149 192.616 156.984 192.909 156.691C193.201 156.398 193.366 156 193.366 155.585V98.2508C193.366 97.8362 193.201 97.4388 192.909 97.1456C192.616 96.8525 192.22 96.6876 191.806 96.6871H182.964Z" fill="#3F3D56"/>
<path d="M217.811 158.192H208.97C208.28 158.191 207.619 157.916 207.132 157.427C206.644 156.939 206.37 156.276 206.369 155.585V98.2508C206.37 97.5599 206.644 96.8974 207.132 96.4089C207.619 95.9203 208.28 95.6455 208.97 95.6447H217.811C218.501 95.6455 219.162 95.9203 219.65 96.4089C220.137 96.8974 220.411 97.5599 220.412 98.2508V155.585C220.411 156.276 220.137 156.939 219.65 157.427C219.162 157.916 218.501 158.191 217.811 158.192ZM208.97 96.6871C208.556 96.6876 208.159 96.8525 207.867 97.1456C207.574 97.4388 207.41 97.8362 207.409 98.2508V155.585C207.41 156 207.574 156.398 207.867 156.691C208.159 156.984 208.556 157.149 208.97 157.149H217.811C218.225 157.149 218.622 156.984 218.914 156.691C219.207 156.398 219.371 156 219.372 155.585V98.2508C219.371 97.8362 219.207 97.4388 218.914 97.1456C218.622 96.8525 218.225 96.6876 217.811 96.6871H208.97Z" fill="#3F3D56"/>
<path d="M243.817 158.192H234.975C234.286 158.191 233.625 157.916 233.137 157.427C232.65 156.939 232.375 156.276 232.375 155.585V98.2508C232.375 97.5599 232.65 96.8974 233.137 96.4089C233.625 95.9203 234.286 95.6455 234.975 95.6447H243.817C244.507 95.6455 245.168 95.9203 245.655 96.4089C246.143 96.8974 246.417 97.5599 246.418 98.2508V155.585C246.417 156.276 246.143 156.939 245.655 157.427C245.168 157.916 244.507 158.191 243.817 158.192ZM234.975 96.6871C234.562 96.6876 234.165 96.8525 233.872 97.1456C233.58 97.4388 233.415 97.8362 233.415 98.2508V155.585C233.415 156 233.58 156.398 233.872 156.691C234.165 156.984 234.562 157.149 234.975 157.149H243.817C244.231 157.149 244.627 156.984 244.92 156.691C245.212 156.398 245.377 156 245.377 155.585V98.2508C245.377 97.8362 245.212 97.4388 244.92 97.1456C244.627 96.8525 244.231 96.6876 243.817 96.6871H234.975Z" fill="#3F3D56"/>
<path d="M58.477 187.121C58.6791 186.382 58.7171 185.607 58.5882 184.852C58.4593 184.097 58.1668 183.379 57.7312 182.749C57.2955 182.12 56.7274 181.593 56.0669 181.207C55.4063 180.822 54.6694 180.585 53.9079 180.516L49.435 162.437L42.8886 169.554L48.1397 185.63C48.1079 186.92 48.5492 188.177 49.38 189.162C50.2109 190.148 51.3736 190.793 52.6478 190.977C53.922 191.161 55.2192 190.87 56.2935 190.159C57.3679 189.448 58.1448 188.367 58.477 187.121Z" fill="#9E616A"/>
<path d="M46.4849 181.561C46.1815 181.434 45.9081 181.244 45.6825 181.005C45.4569 180.765 45.2842 180.48 45.1756 180.169L37.7088 157.143C35.7795 151.612 35.9207 145.567 38.106 140.132L45.3035 122.226C45.4653 121.246 45.8183 120.308 46.3421 119.465C46.8659 118.622 47.5504 117.891 48.3563 117.314C49.1623 116.736 50.074 116.323 51.0392 116.099C52.0045 115.875 53.0044 115.843 53.9817 116.007C54.9591 116.17 55.8947 116.525 56.7352 117.05C57.5757 117.576 58.3045 118.263 58.88 119.071C59.4554 119.88 59.8663 120.794 60.089 121.761C60.3117 122.729 60.3419 123.731 60.178 124.71L50.2477 153.668L53.7236 177.248C53.7699 177.728 53.668 178.21 53.4317 178.63C53.1954 179.05 52.8362 179.387 52.4026 179.595L48.3932 181.513C47.9631 181.718 47.4808 181.787 47.0105 181.711C46.83 181.682 46.6536 181.631 46.4849 181.561Z" fill="#2F2E41"/>
<path d="M83.3964 270.225L89.773 270.225L92.8063 245.577L83.3954 245.577L83.3964 270.225Z" fill="#9E616A"/>
<path d="M102.071 276.158L82.0304 276.159L82.03 268.4L94.3275 268.399C96.3811 268.399 98.3505 269.216 99.8026 270.671C101.255 272.126 102.071 274.1 102.071 276.158Z" fill="#2F2E41"/>
<path d="M51.6696 270.225L58.0461 270.225L61.0794 245.577L51.6685 245.577L51.6696 270.225Z" fill="#9E616A"/>
<path d="M70.3438 276.158L50.3035 276.159L50.3031 268.399L62.6006 268.399C64.6542 268.399 66.6236 269.216 68.0757 270.671C69.5279 272.126 70.3437 274.1 70.3438 276.158Z" fill="#2F2E41"/>
<path d="M85.1394 169.769L90.7446 214.274C91.5152 220.392 92.0543 226.533 92.362 232.697L93.8721 262.964C93.8862 263.246 93.8429 263.528 93.7448 263.793C93.6468 264.058 93.496 264.3 93.3017 264.505C93.1073 264.71 92.8735 264.873 92.6144 264.984C92.3553 265.095 92.0762 265.153 91.7943 265.153H83.2871C82.7895 265.153 82.3083 264.974 81.9309 264.649C81.5535 264.324 81.3049 263.874 81.2302 263.381L73.5793 212.867C73.5425 212.623 73.4207 212.401 73.2357 212.239C73.0507 212.077 72.8143 211.985 72.5686 211.981C72.3228 211.977 72.0835 212.06 71.8931 212.216C71.7027 212.372 71.5735 212.59 71.5284 212.832L62.3111 262.305C62.2199 262.75 61.9864 263.152 61.646 263.452C61.3056 263.752 60.8769 263.932 60.4251 263.965L52.5953 264.463C52.3046 264.484 52.0127 264.444 51.7384 264.345C51.4642 264.246 51.2138 264.09 51.0034 263.888C50.7931 263.686 50.6274 263.442 50.5173 263.171C50.4071 262.901 50.3549 262.61 50.364 262.318L52.8925 181.236L85.1394 169.769Z" fill="#2F2E41"/>
<path d="M60.3051 106.377C67.3602 106.377 73.0796 100.646 73.0796 93.5755C73.0796 86.5052 67.3602 80.7737 60.3051 80.7737C53.2499 80.7737 47.5306 86.5052 47.5306 93.5755C47.5306 100.646 53.2499 106.377 60.3051 106.377Z" fill="#9E616A"/>
<path d="M50.2919 182.278C53.4126 189.575 66.9355 194.787 70.0562 184.363C72.4696 176.305 82.0292 172.917 86.2472 171.796C86.7776 171.655 87.231 171.309 87.5094 170.835C87.7878 170.361 87.8688 169.797 87.7349 169.263L75.9438 122.848C75.257 120.144 73.8892 117.662 71.9714 115.64C70.0535 113.618 67.6497 112.123 64.9902 111.298C55.618 108.389 45.7358 114.378 44.1493 124.078C43.716 126.798 43.4399 129.541 43.3224 132.293C42.3444 152.772 48.2373 177.472 50.2919 182.278Z" fill="#6D21D9"/>
<path d="M92.6238 182.265C92.5473 181.502 92.305 180.766 91.9138 180.108C91.5226 179.449 90.9922 178.885 90.3598 178.454C89.7274 178.023 89.0085 177.737 88.2537 177.615C87.4988 177.492 86.7264 177.538 85.9909 177.747L75.3324 162.488L71.7762 171.487L82.4429 184.598C82.8758 185.813 83.7383 186.826 84.8671 187.446C85.9958 188.067 87.3124 188.25 88.5674 187.963C89.8223 187.675 90.9284 186.936 91.676 185.886C92.4236 184.836 92.7609 183.547 92.6238 182.265Z" fill="#9E616A"/>
<path d="M79.4389 181.396C79.1102 181.387 78.7871 181.309 78.4906 181.166C78.1941 181.024 77.9309 180.82 77.718 180.569L62.4907 161.772C58.7065 157.305 56.6699 151.613 56.7599 145.755L57.0534 126.453C56.8535 125.48 56.8468 124.478 57.0336 123.503C57.2204 122.529 57.5971 121.6 58.142 120.771C58.687 119.942 59.3896 119.229 60.2097 118.673C61.0298 118.116 61.9513 117.727 62.9215 117.527C63.8918 117.327 64.8918 117.321 65.8644 117.509C66.8371 117.697 67.7633 118.075 68.5901 118.621C69.4169 119.168 70.1281 119.872 70.6831 120.694C71.2382 121.517 71.6261 122.44 71.8248 123.413L72.9453 154.012L84.6467 174.764C84.862 175.195 84.9399 175.682 84.8701 176.159C84.8002 176.636 84.5858 177.079 84.256 177.43L81.2023 180.664C80.8746 181.01 80.4494 181.249 79.9831 181.347C79.8043 181.385 79.6216 181.401 79.4389 181.396Z" fill="#2F2E41"/>
<path d="M50.6089 104.046C50.884 104.21 51.193 104.308 51.5119 104.332C51.8307 104.357 52.151 104.308 52.4478 104.188C52.7447 104.069 53.0101 103.883 53.2236 103.644C53.4371 103.405 53.5929 103.121 53.679 102.812L53.6861 102.783C53.918 101.811 53.7255 100.797 53.6589 99.7999C53.5924 98.8032 53.6897 97.7081 54.3672 96.9752C55.63 95.609 57.8767 96.3333 59.7027 95.9878C60.7723 95.7486 61.7183 95.1269 62.3635 94.2392C63.0088 93.3515 63.3091 92.2586 63.2083 91.165C63.1823 90.9578 63.1415 90.7504 63.0958 90.5431C62.9816 90.0179 62.9904 89.4733 63.1216 88.9521C63.2527 88.4308 63.5027 87.9472 63.8517 87.539C64.2008 87.1309 64.6395 86.8094 65.1335 86.5998C65.6274 86.3902 66.1631 86.2981 66.6985 86.3309C68.5439 86.4367 70.5359 86.997 72.0627 85.6272C72.6225 85.0869 73.0111 84.3934 73.18 83.6332C73.349 82.873 73.2908 82.0797 73.0127 81.3525C72.1409 78.8306 69.6769 77.5104 67.2385 76.7846C64.2228 75.9114 61.0508 75.7226 57.9531 76.232C54.8554 76.7414 51.91 77.9361 49.3308 79.7293C47.7907 80.8172 46.3524 82.1842 45.6959 83.9542C45.0395 85.7243 45.3562 87.9574 46.8364 89.1258C45.689 90.3433 44.881 91.8415 44.4934 93.4704C44.1058 95.0993 44.1522 96.8017 44.6279 98.407C45.359 100.768 48.8483 103.031 50.6089 104.046Z" fill="#2F2E41"/>
<path d="M143.606 277H5.77652C5.63858 277 5.50629 276.945 5.40875 276.847C5.31121 276.75 5.25641 276.617 5.25641 276.479C5.25641 276.341 5.31121 276.208 5.40875 276.11C5.50629 276.012 5.63858 275.958 5.77652 275.958H143.606C143.744 275.958 143.877 276.012 143.974 276.11C144.072 276.208 144.126 276.341 144.126 276.479C144.126 276.617 144.072 276.75 143.974 276.847C143.877 276.945 143.744 277 143.606 277Z" fill="#3F3D56"/>
</g>
<defs>
<clipPath id="clip0_188_195">
<rect width="402" height="277" fill="white"/>
</clipPath>
</defs>
</svg>
